<?xml version="1.0" encoding="UTF-8"?>
<!DOCTYPE svg PUBLIC "-//W3C//DTD SVG 1.1//EN" "http://www.w3.org/Graphics/SVG/1.1/DTD/svg11.dtd">
<svg width="511.9" height="366" xmlns="http://www.w3.org/2000/svg">
	<path fill="#ebebff" d="m511.9,30l0,305.04c0,16.55 -13.46,30 -30,30l-451.9,0c-16.54,0 -30,-13.45 -30,-30l0,-305.04c0,-16.55 13.46,-30 30,-30l451.9,0c16.54,0 30,13.45 30,30z" />
	<path fill="#dcdcff" d="m511.9,30l0,305.04c0,16.55 -13.46,30 -30,30l-225.95,0l0,-365.04l225.95,0c16.54,0 30,13.45 30,30z" />
	<g fill="#002860">
		<path d="m210.95,280.995l-134.284,0c-8.284,0 -15,6.716 -15,15s6.716,15 15,15l134.284,0c8.284,0 15,-6.716 15,-15s-6.716,-15 -15,-15z" />
		<path d="m76.666,250.995l89.234,0c8.284,0 15,-6.716 15,-15s-6.716,-15 -15,-15l-89.234,0c-8.284,0 -15,6.716 -15,15s6.716,15 15,15z" />
		<path d="m0,52.52l511.9,0l0,90l-511.9,0l0,-90z" />
	</g>
	<path fill="#001d45" d="m255.95,52.52l255.95,0l0,90l-255.95,0l0,-90z" />
	<path fill="#ff9100" d="m450.9,252.57c0,48.967 -55.555,76.803 -94.74,48.82c39.703,-20.583 39.516,-77.183 -0.01,-97.64c39.354,-28.076 94.75,-0.005 94.75,48.82z" />
	<circle r="59.950001" fill="#e20016" cy="252.57" cx="330.95" />
</svg>