<?xml version="1.0" encoding="UTF-8"?>
<!DOCTYPE svg PUBLIC "-//W3C//DTD SVG 1.1//EN" "http://www.w3.org/Graphics/SVG/1.1/DTD/svg11.dtd">
<svg version="1.1" xmlns="http://www.w3.org/2000/svg" xmlns:xlink="http://www.w3.org/1999/xlink" xml:space="preserve"
    style="shape-rendering:geometricPrecision; fill-rule:evenodd; clip-rule:evenodd"
    viewBox="0 0 1000 1000" width="1000px" height="1000px">

    <symbol viewBox="0 0 1000 1000" id="shape-vicky01">
        <!-- <path d="M451 1000c-156,-7 -315,-46 -451,-124 9,-307 91,-876 500,-876 408,0 491,569 500,876 -109,62 -232,100 -358,116 40,-218 -17,-589 -62,-715 -83,-15 -173,-20 -257,-16 -20,1 -8,-39 -8,-64 -26,16 -40,45 -46,68 -28,3 -55,7 -82,12 -62,182 -63,483 146,572 83,36 238,-13 294,-77 -39,84 -120,124 -200,128l24 100z" /> -->
        <path class="fil0" d="M273 678c-48,-21 -66,-2 -96,-4 43,48 35,98 114,98 86,0 65,-49 99,-96 -49,5 -78,-22 -117,2z"/>
        <path class="fil0" d="M248 553c4,0 8,1 11,1 4,0 7,-1 11,-1 54,0 29,47 -11,47 -39,0 -64,-47 -11,-47z"/>
        <path class="fil0" d="M410 480c47,0 77,-19 123,-48 -133,-135 -292,48 -123,48z"/>
        <path class="fil0" d="M86 457c27,15 51,23 81,23 152,0 40,-142 -81,-76l0 53z"/>
        <path class="fil0" d="M409 1000c-134,-5 -331,-46 -409,-87 10,-307 22,-913 462,-913 440,0 528,569 538,876 -117,62 -250,100 -385,116 43,-218 -18,-589 -67,-715 -89,-15 -152,-25 -242,-21 -22,1 -9,-39 -9,-64 -27,16 -43,45 -49,68 -30,3 -60,7 -88,12 -55,136 -103,473 121,563 90,35 258,1 318,-63 -42,84 -130,124 -216,128l26 100 0 0z"/>
    </symbol>
    <symbol viewBox="0 0 1000 1000" id="shape-vicky02"><path d="M1000 465c-3,-19 -21,-37 -40,-56 -13,-14 -28,-29 -31,-39 -3,-11 1,-30 5,-49 6,-27 11,-53 2,-71 -10,-17 -35,-26 -61,-35 -18,-6 -37,-12 -44,-20 -8,-8 -12,-28 -17,-47 -6,-27 -13,-52 -29,-64 -8,-5 -18,-8 -33,-8 -11,0 -24,2 -37,3 -20,3 -40,4 -48,1 -10,-4 -23,-20 -35,-34 -18,-22 -34,-42 -54,-46 -19,-3 -42,12 -65,27 -16,10 -33,21 -45,22 -10,0 -28,-9 -44,-16 -25,-12 -50,-23 -68,-17 -19,5 -33,28 -48,52 -10,16 -20,33 -29,38 -10,6 -29,6 -49,6 -27,1 -54,1 -68,15 -15,13 -17,39 -20,67 -2,20 -4,39 -11,48 -6,9 -23,18 -40,27 -25,12 -49,24 -56,43 -8,19 2,46 11,72 6,18 12,35 11,46 -1,11 -14,28 -26,43 -16,21 -32,42 -31,61 1,20 20,38 40,58 13,14 28,28 31,38 3,10 -1,30 -5,49 -6,27 -12,53 -2,71 10,17 35,25 61,35 18,6 37,12 44,20 7,8 12,28 17,46 6,28 12,53 29,65 8,5 19,8 35,8 12,0 25,-1 37,-3 20,-2 38,-3 47,-1 10,3 24,20 36,35 17,22 33,42 52,45 1,0 3,0 5,0 18,0 39,-14 60,-27 16,-10 32,-21 44,-21 11,0 29,8 45,15 24,12 50,23 68,17 19,-5 32,-27 46,-50 10,-17 21,-36 30,-40 10,-4 29,-5 47,-5 27,-1 56,-2 71,-16 14,-13 17,-39 20,-67 2,-19 4,-39 10,-48 6,-9 24,-18 41,-27 25,-12 49,-24 56,-43 7,-18 -2,-43 -11,-69 -6,-19 -13,-38 -11,-48 1,-11 13,-26 25,-41 17,-22 34,-44 32,-65zm-499 438c-142,0 -262,-91 -305,-216 -5,3 -12,4 -18,4 -26,0 -48,-24 -48,-54 0,-29 21,-54 48,-54 7,13 15,25 25,36 -9,-30 -14,-61 -14,-92 0,-11 1,-21 2,-31 184,-25 343,-149 343,-149 35,74 180,117 273,138 3,13 4,27 4,42 0,31 -5,62 -14,92 10,-11 18,-23 25,-36 27,0 48,25 48,54 0,30 -22,55 -48,55 -6,0 -12,-2 -17,-4 -43,125 -163,215 -304,215zm-1 -144c-46,-21 -92,0 -116,0 24,21 24,42 47,63 23,21 115,21 138,0 23,-21 23,-42 47,-63 -24,0 -70,-21 -116,0zm133 -139c53,0 80,-33 133,-49 -170,-139 -239,49 -133,49zm-399 -49c53,16 80,49 133,49 106,0 37,-188 -133,-49z"/></symbol>
    <symbol viewBox="0 0 1000 1000" id="shape-vicky03"><path d="M500 0c276,0 500,224 500,500 0,276 -224,500 -500,500 -276,0 -500,-224 -500,-500 0,-276 224,-500 500,-500zm0 413c267,0 267,85 267,133 0,258 -139,395 -267,395 -130,0 -267,-138 -267,-395 0,-56 0,-133 267,-133zm0 367c-43,-21 -87,0 -108,0 21,22 21,44 43,66 22,21 108,21 130,0 22,-22 22,-44 43,-66 -21,0 -65,-21 -108,0zm127 -159c39,0 64,-20 102,-52 -110,-146 -242,52 -102,52zm-356 -52c38,32 63,52 102,52 140,0 8,-198 -102,-52z"/></symbol>
    <symbol viewBox="0 0 1000 1000" id="shape-vicky04"><path d="M127 738c13,96 127,143 202,82 38,49 109,91 171,91 67,0 129,-42 172,-91 75,61 190,15 202,-82 178,-54 165,-320 -25,-352 -74,-395 -593,-396 -667,-2 -206,0 -254,290 -55,354zm174 -186c34,27 56,45 89,45 60,0 62,-42 37,-69 71,-28 130,-79 167,-153 214,119 90,480 -94,480 -128,0 -226,-189 -208,-303 3,0 6,0 9,0l0 0zm309 45c33,0 55,-18 89,-45 -96,-126 -210,45 -89,45zm-110 133c-38,-19 -75,0 -94,0 19,19 19,38 38,56 18,19 94,19 112,0 19,-18 19,-37 38,-56 -19,0 -56,-19 -94,0z"/></symbol>
    <symbol viewBox="0 0 1000 1000" id="shape-vicky05"><path d="M235 624c54,127 160,186 295,175 119,-11 195,-69 247,-175 21,2 44,6 65,5 22,0 33,-14 37,-35 3,-19 -6,-38 -24,-46 -11,-4 -23,-7 -34,-10 -11,-2 -22,-3 -31,-4 -3,-33 -6,-64 -9,-96 -7,0 -12,0 -16,1 -116,12 -233,14 -350,13 -7,0 -10,-3 -13,-8 -11,-25 -23,-49 -36,-73 -1,-3 -3,-6 -5,-10 -15,24 -29,46 -43,69 -5,10 -12,14 -23,13 -22,-2 -43,-3 -66,-4 -2,16 -5,32 -8,48 -2,16 -3,32 -4,47 -17,4 -34,6 -50,11 -24,8 -36,28 -32,49 4,23 22,38 48,37 17,-1 34,-4 52,-7zm-35 46c-67,18 -106,-26 -113,-64 -8,-42 16,-98 85,-102 2,-25 3,-49 5,-73 -5,-2 -10,-3 -17,-5 16,-74 48,-139 103,-191 62,-60 139,-86 223,-90 232,-11 332,155 359,284 -6,1 -11,2 -17,3 1,24 3,48 5,73 31,0 57,12 75,39 13,21 17,43 11,66 -11,45 -58,79 -114,60 0,0 -1,1 -1,2 -35,83 -98,136 -182,163 -124,39 -240,23 -343,-58 -36,-28 -62,-64 -79,-107zm14 -432c-26,24 -42,51 -54,82 -1,3 -3,7 -8,7 -43,1 -84,10 -121,33 -14,-18 -21,-38 -25,-59 -10,-42 -8,-83 10,-123 5,-11 11,-15 24,-16 70,-2 126,27 174,76zm186 314c0,23 -16,40 -38,40 -22,0 -40,-19 -40,-42 0,-21 17,-38 37,-39 23,0 41,18 41,41zm386 -314c26,24 42,51 54,82 1,3 3,7 8,7 43,1 84,9 121,33 14,-18 21,-38 25,-59 10,-42 8,-83 -10,-123 -5,-11 -11,-15 -24,-16 -70,-2 -126,27 -174,76zm-179 314c0,23 16,40 37,40 22,0 41,-19 41,-42 0,-21 -17,-38 -38,-39 -22,0 -40,18 -40,41z"/></symbol>
    <symbol viewBox="0 0 1000 1000" id="shape-sunglass"><path d="M1000 465c-3,-19 -21,-37 -40,-56 -13,-14 -28,-29 -31,-39 -3,-11 1,-30 5,-49 6,-27 11,-53 2,-71 -10,-17 -35,-26 -61,-35 -18,-6 -37,-12 -44,-20 -8,-8 -12,-28 -17,-47 -6,-27 -13,-52 -29,-64 -8,-5 -18,-8 -33,-8 -11,0 -24,2 -37,3 -20,3 -40,4 -48,1 -10,-4 -23,-20 -35,-34 -18,-22 -34,-42 -54,-46 -19,-3 -42,12 -65,27 -16,10 -33,21 -45,22 -10,0 -28,-9 -44,-16 -25,-12 -50,-23 -68,-17 -19,5 -33,28 -48,52 -10,16 -20,33 -29,38 -10,6 -29,6 -49,6 -27,1 -54,1 -68,15 -15,13 -17,39 -20,67 -2,20 -4,39 -11,48 -6,9 -23,18 -40,27 -25,12 -49,24 -56,43 -8,19 2,46 11,72 6,18 12,35 11,46 -1,11 -14,28 -26,43 -16,21 -32,42 -31,61 1,20 20,38 40,58 13,14 28,28 31,38 3,10 -1,30 -5,49 -6,27 -12,53 -2,71 10,17 35,25 61,35 18,6 37,12 44,20 7,8 12,28 17,46 6,28 12,53 29,65 8,5 19,8 35,8 12,0 25,-1 37,-3 20,-2 38,-3 47,-1 10,3 24,20 36,35 17,22 33,42 52,45 1,0 3,0 5,0 18,0 39,-14 60,-27 16,-10 32,-21 44,-22 11,0 29,9 45,16 24,12 50,23 68,17 19,-5 32,-27 46,-50 10,-17 21,-36 30,-40 10,-4 29,-5 47,-5 27,-1 56,-2 71,-16 14,-13 17,-39 20,-67 2,-19 4,-39 10,-48 6,-9 24,-18 41,-27 25,-12 49,-24 56,-43 7,-18 -2,-43 -11,-69 -6,-19 -13,-38 -11,-48 1,-11 13,-26 25,-41 17,-22 34,-44 32,-65zm-499 438c-142,0 -262,-91 -305,-216 -5,3 -12,4 -18,4 -26,0 -48,-24 -48,-54 0,-29 21,-54 48,-54 7,13 15,25 25,36 -9,-30 -14,-61 -14,-92 0,-11 1,-21 2,-31 184,-25 343,-149 343,-149 35,74 180,117 273,138 3,13 4,27 4,42 0,31 -5,62 -14,92 10,-11 18,-23 25,-36 27,0 48,25 48,54 0,30 -22,55 -48,55 -6,0 -12,-2 -17,-4 -43,125 -163,215 -304,215zm164 -225c-11,3 -23,4 -35,4 -53,0 -92,-28 -101,-57l-58 0c-9,29 -48,57 -101,57l0 0c-12,0 -24,-1 -35,-4 -83,-20 -109,-93 -112,-129 0,-10 7,-20 17,-22 1,0 30,-7 68,-7 28,0 54,4 76,11 31,11 64,29 80,52l72 0c16,-23 49,-41 80,-52 22,-7 48,-11 76,-11 37,0 67,7 68,7 10,2 17,12 17,22 -3,36 -29,109 -112,129zm-107 24c1,2 2,4 2,5 0,11 -27,19 -60,19 -33,0 -60,-8 -60,-19 0,-1 1,-3 2,-5 10,-1 28,1 45,6 5,2 9,4 13,5 4,-1 8,-3 13,-5 17,-5 35,-7 45,-6zm-58 65c-46,-21 -92,0 -116,0 24,21 24,42 47,63 23,21 115,21 138,0 23,-21 23,-42 47,-63 -24,0 -70,-21 -116,0l0 0z" /></symbol>
    <symbol viewBox="0 0 1000 1000" id="shape-womanglass"><path d="M1000 557c1,-16 -2,-32 -6,-47 -5,-13 -13,-24 -21,-33 3,-5 6,-10 9,-16 2,-6 5,-13 6,-21 1,-7 2,-15 2,-23 1,-8 -1,-16 -3,-24 -4,-16 -11,-31 -21,-43 -7,-8 -14,-15 -22,-20 1,-3 1,-5 2,-8 0,-7 0,-14 -1,-22 -2,-15 -6,-31 -15,-45 -4,-7 -9,-13 -15,-19 -2,-3 -5,-6 -8,-8 -3,-3 -6,-5 -9,-7 -12,-8 -25,-13 -37,-15 0,-13 -3,-26 -9,-39 -6,-14 -16,-26 -29,-38 -12,-10 -27,-17 -41,-22 -10,-3 -20,-3 -30,-3 -4,-9 -10,-17 -17,-25 -9,-12 -23,-21 -38,-27 -16,-8 -32,-10 -47,-9 -7,0 -15,1 -22,3 -6,1 -11,4 -16,6 -4,-5 -8,-9 -12,-13 -5,-5 -12,-9 -18,-13 -14,-7 -29,-13 -46,-13 -8,-1 -16,0 -24,1 -4,0 -8,1 -12,2 -3,1 -7,2 -11,3 -9,4 -18,9 -26,15 -8,-5 -17,-9 -27,-11 -15,-2 -32,-3 -48,1 -16,4 -31,11 -43,20 -11,9 -19,19 -25,30 -13,-4 -26,-4 -40,-3 -15,1 -30,7 -45,16 -14,8 -25,20 -34,33 -4,6 -7,13 -10,19 -1,3 -1,5 -2,8 -3,0 -5,0 -8,1 -7,1 -14,4 -21,7 -7,3 -13,7 -20,11 -7,5 -12,11 -18,17 -11,13 -19,27 -23,42 -3,13 -5,26 -3,39 -12,4 -24,11 -34,20 -10,11 -20,24 -27,40 -5,15 -9,31 -8,46 1,11 3,21 7,30 -7,6 -14,14 -20,23 -7,13 -11,28 -14,45 -1,17 2,33 6,47 5,13 13,25 21,34 -3,5 -6,10 -9,15 -3,7 -5,14 -6,21 -1,8 -2,15 -2,23 -1,9 1,17 3,25 4,16 11,31 21,42 7,8 14,15 22,21 -1,2 -1,5 -2,7 0,8 0,15 1,22 2,15 5,31 15,45 4,7 9,14 15,20 2,3 5,6 8,8 3,3 6,5 9,7 12,7 24,13 37,15 0,13 3,26 9,39 6,13 16,26 29,37 12,11 27,18 41,22 10,3 20,4 30,3 4,9 10,18 17,26 9,11 23,20 38,27 16,7 32,9 47,9 2,0 4,0 6,-1 43,-36 38,-77 29,-116 -48,-49 -66,-94 -91,-150l0 -1c-1,-1 -1,-1 -2,-2l-1 -1 0 0c-1,-1 -1,-1 -2,-2 -1,0 -2,-1 -3,-2l-1 0c0,0 0,0 -1,0 0,0 0,0 -1,0l-1 0c-3,0 -5,-1 -7,-2 -2,-1 -3,-3 -5,-4 0,-1 -1,-1 -1,-2 -1,-1 -1,-1 -1,-2l-1 0 0 -1c-2,-14 -4,-29 -6,-44l-3 -22 -1 -4c12,17 26,37 26,37 0,0 12,19 48,18 0,0 65,1 89,-8 17,-8 27,-19 32,-30 6,-13 24,-54 25,-54 2,-1 8,-16 23,-15 15,-1 21,14 22,15 2,0 20,41 26,54 5,11 15,22 31,30 25,9 90,8 90,8 36,1 48,-18 48,-18 0,0 14,-20 25,-36l0 3 -3 22c-2,15 -4,30 -7,44l0 1 0 0c0,1 -1,1 -1,2 -1,1 -1,1 -2,2 -1,1 -2,3 -4,4 -2,1 -4,2 -7,2l-1 0c-1,0 -1,0 -1,0 -1,0 -1,0 -1,0l-1 0c-1,1 -2,2 -3,2 -1,1 -1,1 -2,2l0 0 -1 1c-1,1 -1,1 -2,2l0 1c-26,57 -44,104 -96,155 -5,5 -10,9 -15,12 0,46 6,70 41,104 3,-1 16,-3 19,-5 11,-9 19,-20 25,-31 13,4 26,5 40,4 15,-2 30,-8 45,-16 14,-9 25,-21 34,-33 4,-7 7,-13 10,-20 1,-2 1,-5 2,-7 3,-1 5,-1 8,-1 7,-2 14,-4 21,-7 7,-3 13,-7 20,-12 7,-4 12,-10 18,-16 11,-13 19,-27 23,-42 3,-14 5,-27 3,-40 12,-4 24,-10 34,-20 10,-10 20,-23 26,-39 6,-16 10,-32 9,-47 -1,-10 -3,-20 -7,-29 8,-7 14,-14 19,-23 8,-13 12,-29 15,-46zm-554 -57c-19,5 -42,8 -56,5 47,2 87,-44 98,-58 10,-15 20,-32 30,-52 0,0 -22,139 -139,157 17,-10 41,-26 67,-52zm111 54c0,0 21,-32 39,-32 14,-2 48,-10 61,-9 0,0 -68,15 -100,41zm37 -52c-21,6 -63,38 -73,41 -6,2 -14,3 -21,3 -7,0 -15,-1 -21,-3 -2,0 -7,-4 -14,-7 49,-40 69,-94 77,-141 9,15 24,26 43,26 16,0 29,-8 38,-19 3,24 23,42 48,42 3,0 6,0 9,-1 -5,8 -9,18 -9,29 0,8 3,15 7,22 -35,-1 -63,1 -84,8zm-94 272c-42,-21 -84,0 -105,0 21,21 21,42 42,63 21,21 105,21 126,0 21,-21 21,-42 42,-63 -21,0 -63,-21 -105,0z"/></symbol>
    <symbol viewBox="0 0 1000 1000" id="shape-vicky-04"><path d="M127 738c13,96 127,143 202,82 38,49 109,91 171,91 67,0 129,-42 172,-91 75,61 190,15 202,-82 178,-54 165,-320 -25,-352 -74,-395 -593,-396 -667,-2 -206,0 -254,290 -55,354zm373 -8c-38,-19 -75,0 -94,0 19,19 19,38 38,56 18,19 94,19 112,0 19,-18 19,-37 38,-56 -19,0 -56,-19 -94,0zm0 125c-128,0 -226,-189 -208,-303 130,0 243,-60 302,-177 214,119 90,480 -94,480z"/></symbol>

    <view id="vicky01" viewBox="0 0 1000 1000" />
    <view id="vicky02" viewBox="0 1000 1000 1000" />
    <view id="vicky03" viewBox="0 2000 1000 1000" />
    <view id="vicky04" viewBox="0 3000 1000 1000" />
    <view id="vicky05" viewBox="1000 3000 1000 1000" />
    <view id="sunglass" viewBox="1000 0 1000 1000" />
    <view id="womanglass" viewBox="1000 1000 1000 1000" />
    <view id="vicky-04" viewBox="1000 2000 1000 1000" />

    <use xlink:href="#shape-vicky01" width="1000" height="1000" x="0" y="0"></use>
    <use xlink:href="#shape-vicky02" width="1000" height="1000" x="0" y="1000"></use>
    <use xlink:href="#shape-vicky03" width="1000" height="1000" x="0" y="2000"></use>
    <use xlink:href="#shape-vicky04" width="1000" height="1000" x="0" y="3000"></use>
    <use xlink:href="#shape-vicky05" width="1000" height="1000" x="1000" y="3000"></use>
    <use xlink:href="#shape-sunglass" width="1000" height="1000" x="1000" y="0"></use>
    <use xlink:href="#shape-womanglass" width="1000" height="1000" x="1000" y="1000"></use>
    <use xlink:href="#shape-vicky-04" width="1000" height="1000" x="1000" y="2000"></use>
</svg>